<?xml version="1.0" encoding="UTF-8"?>
<svg id="_x32_" xmlns="http://www.w3.org/2000/svg" xmlns:xlink="http://www.w3.org/1999/xlink" viewBox="0 0 1480 1480">
  <defs>
    <style>
      .cls-1 {
        fill: #4c5b48;
      }

      .cls-2 {
        fill: #9e815f;
      }

      .cls-3 {
        fill-rule: evenodd;
      }

      .cls-3, .cls-4 {
        fill: #293728;
      }

      .cls-5 {
        clip-path: url(#clippath);
      }
    </style>
    <clipPath id="clippath">
      <rect class="cls-1" x="367.26" y="871.3" width="12.16" height="14.69"/>
    </clipPath>
  </defs>
  <rect class="cls-4" x="0" width="1480" height="1480"/>
  <g>
    <path class="cls-2" d="M588.16,878.94c.66-1.32.99-3.03.99-5.12v-108.78c0-2.09-.33-3.8-.99-5.12l62.49-.17v10.75c-1.98-.44-3.17-.69-3.56-.74-.39-.05-1.46-.08-3.22-.08h-32.4v44.14h27.11c2.53,0,4.85-.22,6.94-.66v10.58c-2.31-.44-4.52-.66-6.61-.66h-27.44v50.75c0,2.21.27,3.91.83,5.12h-24.14Z"/>
    <path class="cls-2" d="M652.79,768.51c0-5.62,4.52-8.43,13.56-8.43,7.49,0,11.24,2.87,11.24,8.6,0,5.4-4.52,8.1-13.56,8.1-7.5,0-11.24-2.75-11.24-8.27ZM653.95,878.94c.66-1.54.99-3.25.99-5.12v-83.49c0-1.87-.33-3.64-.99-5.29h22.48c-.55,1.21-.83,2.98-.83,5.29v83.49c0,1.98.22,3.69.66,5.12h-22.32Z"/>
    <path class="cls-2" d="M690.32,878.94c.66-1.54.99-3.25.99-5.12v-83.49c0-1.76-.28-3.58-.83-5.46h21v12.73c.55-1.1,1.38-2.26,2.48-3.47.44-.55.88-1.1,1.32-1.65,2.97-3.2,6.58-5.62,10.83-7.27,4.24-1.65,8.95-2.48,14.13-2.48,8.6,0,15.48,2.43,20.66,7.27,5.18,4.85,7.77,11.24,7.77,19.18v64.64c0,1.54.33,3.25.99,5.12h-22.48c.44-.99.66-2.7.66-5.12v-60.18c0-10.69-5.45-16.04-16.37-16.04-5.51,0-10.14,1.82-13.89,5.46-3.75,3.64-5.62,8.16-5.62,13.56v57.2c0,2.09.22,3.8.66,5.12h-22.32Z"/>
    <path class="cls-2" d="M791.33,803.14l-3.31-12.63,6.61-2.75c8.48-3.24,17.3-4.86,26.45-4.86,6.72,0,12.45.94,17.19,2.83,4.74,1.89,8.37,4.66,10.91,8.32,1.98,2.59,2.98,7.01,2.98,13.26v47.85c0,6.9,1.65,10.35,4.96,10.35,1.65,0,3.8-.92,6.45-2.75v10.85c-5.18,3.56-10.36,5.35-15.54,5.35-4.41,0-8.1-1.19-11.08-3.56s-4.46-5.29-4.46-8.75v-.97c-7.6,8.86-16.7,13.28-27.28,13.28-7.72,0-14.03-2.45-18.93-7.35-4.91-4.9-7.36-11.24-7.36-19,0-4.42.88-8.54,2.65-12.37,1.76-3.83,4.3-6.98,7.6-9.46,2.75-2.26,5.9-4.07,9.42-5.41,3.53-1.35,10.36-3.48,20.5-6.39,4.63-1.29,7.85-2.88,9.67-4.77,1.82-1.89,2.73-4.61,2.73-8.16,0-3.77-1.46-6.84-4.38-9.21-2.92-2.37-6.7-3.56-11.32-3.56-2.09,0-4.44.32-7.03.97-2.59.65-4.99,1.46-7.19,2.43-2.21.97-3.97,1.86-5.29,2.67-1.32.81-2.97,2.08-4.96,3.81ZM831.5,845.49v-22.91c-1.88,1.4-3.36,2.31-4.46,2.74l-12.9,5.49c-5.73,2.37-9.75,4.95-12.07,7.74-2.31,2.8-3.47,6.51-3.47,11.14s1.35,8.42,4.05,11.38c2.7,2.96,6.14,4.44,10.33,4.44,5.29,0,9.7-1.88,13.23-5.65,3.53-3.77,5.29-8.55,5.29-14.36Z"/>
    <path class="cls-2" d="M867.87,878.94c.66-1.54.99-3.25.99-5.12v-83.49c0-1.76-.28-3.58-.83-5.46h20.99v12.73c.55-1.1,1.38-2.26,2.48-3.47.44-.55.88-1.1,1.32-1.65,2.98-3.2,6.58-5.62,10.83-7.27,4.24-1.65,8.95-2.48,14.13-2.48,8.6,0,15.48,2.43,20.66,7.27,5.18,4.85,7.77,11.24,7.77,19.18v64.64c0,1.54.33,3.25.99,5.12h-22.48c.44-.99.66-2.7.66-5.12v-60.18c0-10.69-5.45-16.04-16.37-16.04-5.51,0-10.14,1.82-13.89,5.46-3.75,3.64-5.62,8.16-5.62,13.56v57.2c0,2.09.22,3.8.66,5.12h-22.32Z"/>
    <path class="cls-2" d="M1027.73,786.77v14.42l-4.3-3.4c-5.51-3.56-11.3-5.35-17.36-5.35-8.16,0-14.55,3.43-19.18,10.29-4.63,6.86-6.94,16.28-6.94,28.27s2.2,20.98,6.61,27.62c4.41,6.64,10.52,9.96,18.35,9.96,4.63,0,9.04-.97,13.23-2.92,1.54-.65,2.81-1.27,3.8-1.86.99-.59,2.92-2.13,5.79-4.62v13.61c-4.85,2.38-9.12,4-12.81,4.86-3.69.86-8.29,1.3-13.8,1.3-13.67,0-24.28-4.13-31.82-12.39-7.55-8.26-11.32-19.95-11.32-35.07s4.16-26.75,12.48-35.55c8.32-8.8,19.59-13.2,33.81-13.2,7.49,0,15.32,1.35,23.47,4.05Z"/>
    <path class="cls-2" d="M1116.84,829.05h-63.65v3.05c0,11.89,2.51,21.02,7.52,27.4,5.01,6.37,12.21,9.56,21.57,9.56,3.2,0,6.17-.26,8.93-.78,2.75-.52,5.51-1.47,8.27-2.83,1.98-.94,3.58-1.81,4.79-2.59,1.21-.78,2.98-2.17,5.29-4.16l2.81,12.31-5.29,2.75c-8.6,3.45-17.91,5.18-27.94,5.18-15.21,0-26.92-4.12-35.13-12.37-8.21-8.25-12.32-20.02-12.32-35.33s3.97-26.68,11.9-35.41c7.94-8.73,18.68-13.1,32.24-13.1,12.78,0,22.81,4.01,30.09,12.03,7.27,8.02,10.91,19.07,10.91,33.16v1.14ZM1075.18,792.12c-6.39,0-11.57,2.44-15.54,7.33-3.97,4.89-5.95,11.62-5.95,20.2h41.16c0-8.69-1.79-15.45-5.37-20.28-3.58-4.83-8.35-7.25-14.3-7.25Z"/>
    <path class="cls-2" d="M1125.27,768.51c0-5.62,4.52-8.43,13.56-8.43,7.49,0,11.24,2.87,11.24,8.6,0,5.4-4.52,8.1-13.56,8.1-7.5,0-11.24-2.75-11.24-8.27ZM1126.42,878.94c.66-1.54.99-3.25.99-5.12v-83.49c0-1.87-.33-3.64-.99-5.29h22.48c-.55,1.21-.83,2.98-.83,5.29v83.49c0,1.98.22,3.69.66,5.12h-22.32Z"/>
    <path class="cls-2" d="M1162.79,878.94c.66-1.65.99-3.36.99-5.12v-83.65c0-1.98-.33-3.74-.99-5.29h20.99v12.4c1.87-5.07,4.57-8.68,8.1-10.83,3.53-2.15,8.6-3.22,15.21-3.22v15.87l-3.31-.17c-6.28,0-11.1,1.68-14.47,5.04-3.36,3.36-5.04,8.24-5.04,14.63v55.22c0,1.98.27,3.69.83,5.12h-22.32Z"/>
    <path class="cls-2" d="M1215.53,803.14l-3.31-12.63,6.61-2.75c8.48-3.24,17.3-4.86,26.45-4.86,6.72,0,12.45.94,17.19,2.83,4.74,1.89,8.37,4.66,10.91,8.32,1.98,2.59,2.98,7.01,2.98,13.26v47.85c0,6.9,1.65,10.35,4.96,10.35,1.65,0,3.8-.92,6.45-2.75v10.85c-5.18,3.56-10.36,5.35-15.54,5.35-4.41,0-8.1-1.19-11.08-3.56s-4.46-5.29-4.46-8.75v-.97c-7.6,8.86-16.7,13.28-27.28,13.28-7.72,0-14.03-2.45-18.93-7.35-4.91-4.9-7.36-11.24-7.36-19,0-4.42.88-8.54,2.64-12.37,1.76-3.83,4.3-6.98,7.6-9.46,2.75-2.26,5.89-4.07,9.42-5.41,3.53-1.35,10.36-3.48,20.5-6.39,4.63-1.29,7.85-2.88,9.67-4.77,1.82-1.89,2.73-4.61,2.73-8.16,0-3.77-1.46-6.84-4.38-9.21-2.92-2.37-6.7-3.56-11.32-3.56-2.09,0-4.44.32-7.03.97-2.59.65-4.99,1.46-7.19,2.43-2.21.97-3.97,1.86-5.29,2.67-1.32.81-2.98,2.08-4.96,3.81ZM1255.7,845.49v-22.91c-1.88,1.4-3.36,2.31-4.46,2.74l-12.9,5.49c-5.73,2.37-9.75,4.95-12.07,7.74-2.31,2.8-3.47,6.51-3.47,11.14s1.35,8.42,4.05,11.38c2.7,2.96,6.14,4.44,10.33,4.44,5.29,0,9.7-1.88,13.23-5.65,3.53-3.77,5.29-8.55,5.29-14.36Z"/>
  </g>
  <g>
    <path class="cls-2" d="M588.16,720.07c.55-.66,1.07-1.43,1.57-2.31.5-.88.91-1.82,1.24-2.81l38.52-108.78c.66-1.98.99-3.36.99-4.13v-.99h19.51c0,.55.03,1.05.08,1.49.05.44.47,1.65,1.24,3.64l39.68,108.78c.77,2.31,1.65,4.02,2.64,5.12h-25.79c0-1.44-.33-3.15-.99-5.15l-11.06-31.22h-43.07l-11.08,31.28c-.73,1.97-1.1,3.39-1.1,4.27v.82h-12.4ZM634.1,622.34l-17.8,51.27h36l-18.2-51.27Z"/>
    <path class="cls-2" d="M694.28,720.07c.66-1.54.99-3.25.99-5.12v-83.48c0-1.76-.28-3.58-.83-5.46h21v12.73c.55-1.1,1.38-2.26,2.48-3.47.44-.55.88-1.1,1.32-1.65,2.97-3.2,6.58-5.62,10.83-7.27,4.24-1.65,8.95-2.48,14.13-2.48,8.6,0,15.48,2.42,20.66,7.27,5.18,4.85,7.77,11.24,7.77,19.18v64.64c0,1.54.33,3.25.99,5.12h-22.48c.44-.99.66-2.7.66-5.12v-60.17c0-10.69-5.45-16.04-16.37-16.04-5.51,0-10.14,1.82-13.89,5.46-3.75,3.64-5.62,8.16-5.62,13.56v57.2c0,2.09.22,3.8.66,5.12h-22.32Z"/>
    <path class="cls-2" d="M795.29,644.27l-3.31-12.63,6.61-2.75c8.48-3.24,17.3-4.86,26.45-4.86,6.72,0,12.45.94,17.19,2.83,4.74,1.89,8.37,4.66,10.91,8.32,1.98,2.59,2.98,7.01,2.98,13.26v47.85c0,6.9,1.65,10.35,4.96,10.35,1.65,0,3.8-.92,6.45-2.75v10.85c-5.18,3.56-10.36,5.35-15.54,5.35-4.41,0-8.1-1.19-11.08-3.56-2.98-2.37-4.46-5.29-4.46-8.75v-.97c-7.6,8.86-16.7,13.28-27.28,13.28-7.72,0-14.03-2.45-18.93-7.36-4.91-4.9-7.36-11.24-7.36-19,0-4.42.88-8.54,2.65-12.37,1.76-3.83,4.3-6.98,7.6-9.46,2.75-2.26,5.9-4.07,9.42-5.41,3.53-1.35,10.36-3.48,20.5-6.39,4.63-1.29,7.85-2.88,9.67-4.77,1.82-1.89,2.73-4.61,2.73-8.16,0-3.77-1.46-6.84-4.38-9.21-2.92-2.37-6.7-3.56-11.32-3.56-2.09,0-4.44.32-7.03.97-2.59.65-4.99,1.46-7.19,2.43-2.21.97-3.97,1.86-5.29,2.67-1.32.81-2.97,2.08-4.96,3.81ZM835.46,686.62v-22.91c-1.88,1.4-3.36,2.31-4.46,2.74l-12.89,5.49c-5.73,2.37-9.75,4.95-12.07,7.74-2.31,2.8-3.47,6.51-3.47,11.14s1.35,8.42,4.05,11.38c2.7,2.96,6.14,4.44,10.33,4.44,5.29,0,9.7-1.88,13.23-5.65,3.53-3.77,5.29-8.55,5.29-14.36Z"/>
    <path class="cls-2" d="M861.42,635.42v-9.64h13.56v-16.67l21.33-2.78c-.44,1.85-.66,3.76-.66,5.72v13.73h15.04v9.64h-15.04v65.04c0,5.34,2.28,8.01,6.85,8.01,2.45,0,5.18-.92,8.19-2.78v10.62c-6.42,2.5-12.29,3.76-17.61,3.76-12.07,0-18.1-5.61-18.1-16.83v-67.82h-13.56Z"/>
    <path class="cls-2" d="M911.5,672.04c0-14.71,3.91-26.39,11.74-35.04,7.82-8.65,18.46-12.98,31.9-12.98s24.36,4.33,32.07,12.98c7.71,8.65,11.57,20.71,11.57,36.18,0,14.17-3.97,25.53-11.9,34.07-7.94,8.54-18.52,12.82-31.74,12.82s-24.08-4.33-31.9-12.98c-7.83-8.65-11.74-20.33-11.74-35.04ZM935.8,652.73c-1.54,6.71-2.31,13.15-2.31,19.31,0,7.79.99,14.91,2.96,21.34,1.98,6.44,4.61,11.17,7.91,14.2,2.74,2.38,6.31,3.57,10.7,3.57,9.77,0,16.19-6.6,19.27-19.8,1.65-6.49,2.47-12.93,2.47-19.31,0-7.9-.99-15.06-2.97-21.5-1.98-6.44-4.66-11.17-8.07-14.2-2.75-2.49-6.31-3.73-10.7-3.73-9.55,0-15.98,6.71-19.27,20.12Z"/>
    <path class="cls-2" d="M1009.7,720.07c.66-1.65.99-3.36.99-5.12v-85.3c0-1.32-.28-2.53-.83-3.64h20.83v10.74c6.61-8.6,15.59-12.89,26.95-12.89,12.12,0,20.44,4.3,24.96,12.89,7.49-8.6,17.03-12.89,28.6-12.89,8.37,0,14.88,2.21,19.51,6.61,4.63,4.41,6.94,10.53,6.94,18.35v66.13c0,1.87.33,3.58.99,5.12h-22.48c.66-1.21.99-2.92.99-5.13v-60.96c0-3.75-.33-6.24-.99-7.45-1.54-5.3-6.17-7.95-13.89-7.95-5.4,0-9.73,1.41-12.98,4.23-3.25,2.81-4.88,6.49-4.88,11.01v61.12c0,2.21.27,3.92.83,5.13h-22.48c.66-1.32.99-3.03.99-5.12v-60.83c0-3.2-.28-5.56-.83-7.11-1.87-5.62-6.56-8.43-14.05-8.43-4.96,0-9.15,1.43-12.56,4.3-3.42,2.87-5.12,6.45-5.12,10.75v61.33c0,2.21.27,3.91.83,5.12h-22.32Z"/>
    <path class="cls-2" d="M1151.54,609.64c0-5.62,4.52-8.43,13.56-8.43,7.49,0,11.24,2.87,11.24,8.6,0,5.4-4.52,8.1-13.56,8.1-7.5,0-11.24-2.75-11.24-8.26ZM1152.7,720.07c.66-1.54.99-3.25.99-5.12v-83.48c0-1.87-.33-3.64-.99-5.29h22.48c-.55,1.21-.83,2.98-.83,5.29v83.48c0,1.98.22,3.69.66,5.12h-22.32Z"/>
    <path class="cls-2" d="M1196.67,644.27l-3.31-12.63,6.61-2.75c8.48-3.24,17.3-4.86,26.45-4.86,6.72,0,12.45.94,17.19,2.83,4.74,1.89,8.37,4.66,10.91,8.32,1.98,2.59,2.98,7.01,2.98,13.26v47.85c0,6.9,1.65,10.35,4.96,10.35,1.65,0,3.8-.92,6.45-2.75v10.85c-5.18,3.56-10.36,5.35-15.54,5.35-4.41,0-8.1-1.19-11.08-3.56-2.98-2.37-4.46-5.29-4.46-8.75v-.97c-7.6,8.86-16.7,13.28-27.28,13.28-7.72,0-14.03-2.45-18.93-7.35-4.9-4.9-7.36-11.24-7.36-19,0-4.42.88-8.54,2.64-12.37,1.76-3.83,4.3-6.98,7.6-9.46,2.75-2.26,5.89-4.07,9.42-5.41,3.53-1.35,10.36-3.48,20.5-6.39,4.63-1.29,7.85-2.88,9.67-4.77,1.82-1.89,2.73-4.61,2.73-8.16,0-3.77-1.46-6.84-4.38-9.21-2.92-2.37-6.7-3.56-11.32-3.56-2.09,0-4.44.32-7.03.97-2.59.65-4.99,1.46-7.19,2.43-2.21.97-3.97,1.86-5.29,2.67s-2.98,2.08-4.96,3.81ZM1236.84,686.62v-22.91c-1.87,1.4-3.36,2.31-4.46,2.74l-12.89,5.49c-5.73,2.37-9.75,4.95-12.07,7.74-2.31,2.8-3.47,6.51-3.47,11.14s1.35,8.42,4.05,11.38c2.7,2.96,6.14,4.44,10.33,4.44,5.29,0,9.7-1.88,13.23-5.65,3.53-3.77,5.29-8.55,5.29-14.36Z"/>
  </g>
  <circle class="cls-4" cx="370.85" cy="740" r="176.16"/>
  <path class="cls-2" d="M370.85,918.62c-98.49,0-178.62-80.13-178.62-178.62s80.13-178.62,178.62-178.62,178.62,80.13,178.62,178.62-80.13,178.62-178.62,178.62ZM370.85,566.31c-95.77,0-173.69,77.92-173.69,173.69s77.92,173.69,173.69,173.69,173.69-77.92,173.69-173.69-77.92-173.69-173.69-173.69Z"/>
  <path class="cls-2" d="M370.85,905.56c-91.29,0-165.56-74.27-165.56-165.56s74.27-165.56,165.56-165.56,165.56,74.27,165.56,165.56-74.27,165.56-165.56,165.56ZM370.85,577.4c-89.66,0-162.6,72.94-162.6,162.6s72.94,162.6,162.6,162.6,162.6-72.94,162.6-162.6-72.94-162.6-162.6-162.6Z"/>
  <path class="cls-2" d="M287.38,851.09l8.35-20.49,12.72,8.48c16.43,9.52,34.45,14.26,54.06,14.26.77,0,1.54,0,2.31-.02l.1,14.07c-.8.01-1.6.02-2.4.02-15.63,0-31-1.99-46.11-6.03-7.95-1.8-17.62-5.24-29.02-10.27ZM392.47,645.76h0s0,0,0,0h0s0,0,0,0h0s.01,0,.01,0h0c.27-.04,2.13-.3,5.41-.1.73.04,1.01.24,1,.53,0,0,0,.02,0,.03,0,.01,0,.02,0,.03,0,0,0,.02,0,.03,0,.01,0,.02,0,.03,0,.01,0,.02,0,.03,0,.02-.01.03-.02.05v.03s-.03.04-.03.04l-.02.03s-.02.03-.03.05c0,.02-.02.03-.03.05l-.02.04-.03.04-.02.03-.03.04s-.03.04-.05.06h0s-.03.04-.03.04l-.03.03-.04.04-.02.03s-.06.06-.08.09l-.02.02-.05.05-.03.03-.05.04h0s-.07.07-.07.07l-.06.05-.02.02-.06.05-.02.02c-.07.06-.14.12-.21.18l-.03.03c-.08.06-.15.12-.23.18h-.02s-.07.07-.07.07l-.04.03-.06.05-.09.07-.09.06h-.01c-.12.1-.25.18-.37.27h0s-.09.07-.09.07l-.1.07-.09.06h-.01s-.09.07-.09.07h0c-.19.12-.37.24-.55.35h-.02c-.15.11-.29.19-.42.28l-.08.05c-.13.08-.26.15-.37.22l-.04.03h-.02c-.08.06-.16.1-.22.14h0s-.05.03-.05.03h-.01s-.03.03-.03.03h-.03s-.02.02-.02.02l-.04.02h0s-.04.02-.04.02l-.03.02h-.02s-.02.02-.02.02h0s-2.39,1.46-2.66,1.52c-.21.05-1.44,5.24-2.15,7.37,2.41.33,4.81.73,7.21,1.22v-9.15h12.01v12.21c.18.05.35.11.53.16-.02-.15-.04-.28-.05-.36-.05-.56.67-3.84.93-4.08.27-.24,2.88-1.33,2.88-1.33l1.23-1.23,3.07,1.23s.74.24.66.66c-.08.42-.29,2.48-.45,2.91-.16.43-1.09,2.8-1.25,2.86-.13.04-1.58.7-2.19.97,1.87.67,3.73,1.38,5.6,2.15l13.12,6.28,7.95-17.35c-6.36-2.19-10.33-3.49-11.92-3.89-5.3-1.6-10.2-2.89-14.71-3.89-7.42-1.6-13.91-2.54-19.48-2.84-3.94-.21-7.82-.35-11.63-.41l-.09,13.18c1.94.15,3.88.35,5.82.61-.54-2.36-1.41-8.23-1.18-9.88,0-.15.03-.29.13-.39.69-.76.71-.84,1.37-1.31.67-.47,2.3-.85,2.3-.85l.35-.36.7-.07h0ZM381.65,851.58c9.3-1.85,17.36-5.15,24.18-9.92,11.13-7.83,16.69-17.9,16.69-30.27,0-8.58-2.78-16.21-8.35-22.79-4.24-4.39-10.14-8.58-17.69-12.57-3.56-1.88-8.32-4.09-14.28-6.6l.2-28.64c13.07,4.78,24.32,9.42,33.75,13.96,11.92,5.58,21.27,12.72,28.02,21.39,6.76,8.73,10.14,18.35,10.14,28.92,0,18-8.61,32.86-25.84,44.63-12.95,8.89-28.6,14.42-46.94,16.61l.1-14.73h0ZM364.16,762.25c-2.06-.78-4.21-1.59-6.43-2.41-25.7-9.57-43.46-18.65-53.26-27.23-9.8-8.63-14.71-19.2-14.71-31.76,0-16.41,8.28-29.82,24.84-40.34,13.24-8.37,29.48-13.39,48.73-15.07l.09,12.88c-10.3,1.3-19.29,4.58-26.96,9.83-10.2,6.98-15.3,15.61-15.3,25.78,0,9.57,4.11,17.55,12.32,23.99,5.97,4.64,16.12,9.9,30.48,15.8l.2,28.55h0Z"/>
  <path class="cls-3" d="M409.23,650.44s1.13.66,1.75,1.06c0,0,0,0,.01,0,.12.08.22.16.29.21,5.51,3.95-2.51,17.15-2.51,1.18l-.46-2.66.92.21Z"/>
  <g id="_2746844496000">
    <path class="cls-1" d="M363.28,862.39c-.34-1.76.38-3.26,1.79-4.38.04-.03.01.24-.03-5.62-4.48,2.45-7.22,5.43-6.2,10.46,1.9,9.22,17.59,7.87,22.77,11.12,2.36,1.52,2.11,4.02-.19,5.51,0,1.21-.02,2.19-.02,2.92,1.22-.51,2.38-1.19,3.26-2.17,1.37-1.51,1.93-3.76,1.35-5.7-2.27-7.29-21.4-5.44-22.72-12.16h0ZM363.28,862.39h0Z"/>
    <path class="cls-1" d="M379.68,832.59c-3.49-1.61-8.07-2.79-12.73-4.58.11,14.56.21,27.17.27,36.73,3.07,1.48,8.07,2.25,12.18,3.56.07-8.94.16-21.24.27-35.7Z"/>
    <g>
      <rect class="cls-1" x="367.26" y="871.3" width="12.16" height="14.69"/>
      <g class="cls-5">
        <path class="cls-1" d="M367.37,884.01c0,.7,2.26,1.98,5.96,1.98s5.96-1.28,5.96-1.98c0-.08.03-3.56.07-9.67-3.06-1.09-7.59-1.5-12.08-2.81.06,7.86.09,12.39.09,12.49Z"/>
      </g>
    </g>
    <polygon class="cls-1" points="367.26 885.99 379.42 885.99 379.42 871.3 367.26 871.3 367.26 885.99"/>
    <path class="cls-1" d="M359.25,807.38c-.15-4.21,1.97-7.17,5.38-9.57-.03-3.53-.05-7.12-.08-10.73-6.51,3.42-12.22,8.43-13.31,15.73-.89,5.72.43,11.94,4.38,16.43,10.1,11.48,32.08,8.81,30.62,20.51-.34,2.48-2.4,4.16-4.56,5.41-.02,2.2-.03,4.33-.05,6.39,4.25-1.77,8.34-4.31,10.02-8.62.73-1.91,1.08-4.02.94-6.07-.28-4.32-2.98-7.56-6.53-9.98-10.42-7.03-26.31-6.72-26.82-19.52h0s0,0,0,0ZM359.25,807.38h0Z"/>
    <path class="cls-1" d="M365.42,645.74c5.32-1.18,10.6-1.71,15.85-1.75,0-.53.01-1.03.01-1.51-4.38.45-11.52.45-15.9.03,0,.95.02,2.02.03,3.23h0ZM365.42,645.74h0Z"/>
    <path class="cls-1" d="M385.58,627.02c1.85-1.62,3.3-3.49,4.39-5.6,6.5-12.7-2.98-27.75-17.25-27.4-7.88.2-14.49,5.21-17.11,12.11-2.76,7.24-.84,15.59,5.21,20.89,4.35-.98,20.36-.99,24.76,0h0s0,0,0,0ZM385.58,627.02h0Z"/>
    <path class="cls-1" d="M382.41,640.2c.31-1.34,2.22-9.15,2.68-11.15-4.27-.9-19.52-.9-23.79,0,.49,2.12,2.39,9.86,2.68,11.15,3.13.71,15.29.71,18.42,0Z"/>
    <path class="cls-1" d="M401.87,652.94c-.16.03-.75.24-.86.45-.52,1.59.48,2.73,1.99,3.32.96.36,1.96.01,2.45-.73.44-.71.67-1.58.41-2.42-.76-.43-2.59-.92-3.99-.61h0Z"/>
    <path class="cls-1" d="M415.93,659.92c.14-.37.69-1.13-.44-1.6-1.86-.88-1.78-1.77.18-1.12,3.37,1.11-.36,4.38.25,2.71h0ZM407.09,655.53c.1.56,0,1.61-.13,1.96-.79,1.85-3.43,1.58-3.26,1.06.09-.27.53-.01,1.37-.39.71-.32,1.25-1.33,1.11-2.13-.68.97-2.05,1.62-3.26,1.46-1.46-.17-2.65-1.5-2.55-3.01,0-.16.01-.13-.02-.1-1.02.64-.51,2.26.62,3.02.4.24.81.51,1.27.82l.02.1c-.11.07-.94.17-1.68-.23-1.22-.61-1.9-1.52-1.89-2.88,0-.31.06-.63.2-.93-.27.07-.52.15-.74.22-.25.08-.46-.21-.31-.43,1.91-2.56,7.52-4.66,9.8.06.37.77.34,1.41-.56,1.41h0s0,0,0,0ZM418.05,656.92c-2.16-1.92-4.02-3.4-7.07-5.42.65,1.79-.39,1.81-.36,1.32.05-.75-.52-1.53-1.1-2.13-.78-.8-5.22-3.16-6.21-3.68-1.73-.91-5.82-1.7-7.76-1.3-2.64.54-5.44,2.2-4.75,4.62.11.41-.48.67-.69.18-.6-1.42.01-3.34,2.34-4.75-1.6.15-2.41.35-4.57.41-3.13.08-10.44-.74-20.61,1.27-20.21,4-37.39,17.31-39.54,37.46-.42,3.77-.24,8.17.25,11.67,2.85,20.63,17.48,29.85,36.15,38.18-.05-6.28-.1-12.33-.15-18.12-9.71-5.33-18.04-11.64-19.24-22.67-.46-4.17.04-8.85,1.61-12.87,5.96-15.46,26.66-20.38,42.66-17.07-.6-.85-1.12-1.92-1.23-3.47-.01-.19.13-.3.26-.31.67-.04,1.1,3.4,3.98,4.91.86.45,1.73,1.03,3,1.65,6.12,3.01,9.16.42,11.51.93,4.32.93,5.07.79,6.17-.56-.94-.13-2.49-.65-3.85-1.03-11.57-3.29-7.95-.94-13.87-3.25-.31-.12-.17-.56.14-.49.95.21,1.85.5,2.78.62,2.64.42,2.97-.53,8.59,1.01,4.46,1.21,4.62,2.13,7.89,2.02,2.51-.1,1.61-2.2,4.53-5.34,1.3-1.39-.45-3.42-.87-3.8h-.02s0,0,0,0ZM418.05,656.92h0Z"/>
    <path class="cls-1" d="M382.45,743.54c9.27,5.66,11.59,11.33,11.27,18.12-.34,8.15-4.31,13.47-11.54,17.44-.03,3.65-.06,7.28-.08,10.88,12.14-4.91,21.82-10.97,23.53-24.06.51-3.77.29-8.44-.46-12.35-2.5-13.04-11.19-20.79-22.57-27.26-.05,5.55-.09,11.3-.14,17.25h0ZM382.45,743.54h0Z"/>
    <path class="cls-1" d="M381.05,665.17c-5.25-.2-10.52.43-15.41,1.96.51,50.95.75,85.86,1.23,149.47,4.18,2.45,8.33,3.55,12.89,5.45.51-67.68.76-104.44,1.29-156.88h0Z"/>
  </g>
  <g id="Logo_antiga">
    <g>
      <path class="cls-4" d="M394.8,783.52,384.25,733.94,383.83,731.26c-.55-.15-1.01-.91-1.01-.91,0,0,.43-.57.98-.42.55.15,1.01.96,1.01.96,0,0-.43.51-.98.36ZM388.97,732.9s-.43.2-.83-.04c-.4-.24-.61-.84-.61-.84,0,0,.43-.22.83.03.4.24.61.85.61.85ZM383.73,784.92c-.36.23-.88-.11-.87-.11,0,0,.07-.66.41-.88.34-.22.85.08.85.08,0,0-.03.68-.39.91ZM397.99,767.56c.11-.33.45-.37.45-.37,0,0,.17.51.06.84-.11.34-.46.35-.46.35,0,0-.16-.51-.05-.83ZM395.87,771.82c.23-.36.72-.27.72-.27,0,0,.15.71-.09,1.09-.24.38-.75.24-.75.24,0,0-.11-.7.12-1.06ZM395.2,774.67c.42-.5,1.21-.28,1.22-.29,0,0,.14,1.13-.31,1.67-.45.54-1.27.21-1.27.2,0,0-.05-1.09.37-1.59ZM393.07,775.34c.22-.18.58,0,.58,0,0,0,.02.5-.2.69-.22.19-.59,0-.59,0,0,0,0-.49.21-.67ZM392.16,777.74c.34-.22.85.07.85.08,0,0-.03.69-.39.91-.36.23-.88-.11-.88-.11,0,0,.07-.66.41-.88ZM386.15,784.45c-.26.06-.58-.25-.58-.25,0,0,.1-.39.35-.46.25-.06.57.23.57.23,0,0-.08.41-.34.47ZM387.12,782.83c-.44.14-.97-.29-.97-.29,0,0,.19-.61.61-.74.42-.13.95.25.95.25,0,0-.14.65-.58.79ZM388,779.99s.13-.43.42-.49c.29-.07.65.24.65.24,0,0-.11.44-.41.52-.3.07-.66-.26-.66-.26ZM390.38,783.27c-.28.07-.62-.26-.62-.26,0,0,.11-.42.37-.49.27-.06.61.25.61.25,0,0-.09.44-.37.51ZM391.81,781.84c-.64.29-1.47-.34-1.47-.34,0,0,.23-.97.83-1.24.6-.27,1.42.24,1.42.24,0,0-.14,1.05-.78,1.34ZM394.12,781.88c-.28.18-.68-.04-.68-.04,0,0,.07-.49.35-.67.28-.18.67.02.67.02,0,0-.05.51-.33.69ZM395.74,779.48c-.66.59-1.69.08-1.68.08,0,0,.08-1.3.68-1.85.6-.54,1.6-.21,1.6-.21,0,0,.06,1.39-.6,1.98ZM397.88,778.76c-.32.38-.87.21-.87.21,0,0-.02-.73.29-1.1.31-.36.85-.24.85-.25,0,0,.06.76-.27,1.13ZM398.97,775.86c-.61.96-1.81.67-1.8.66,0,0-.14-1.61.4-2.48.55-.87,1.67-.82,1.68-.82,0-.01.33,1.69-.28,2.65ZM398.9,771.57c-.32.71-1.12.63-1.12.63,0,0-.23-1.11.07-1.77.3-.66,1.05-.7,1.05-.7,0,0,.32,1.13,0,1.84ZM400.96,773.82c-.23.5-.75.5-.75.5,0,0-.14-.76.08-1.24.22-.48.72-.53.72-.53,0,0,.18.77-.05,1.27ZM401.15,770.89c-.35,1-1.32,1.06-1.31,1.05,0,0-.33-1.4-.01-2.31.32-.92,1.21-1.15,1.21-1.16,0,0,.46,1.42.11,2.42ZM400.28,766.66c-.12.53-.6.64-.6.64,0,0-.25-.71-.13-1.21.12-.5.57-.66.57-.66,0,0,.28.71.16,1.24ZM400.44,760.3c.02-.42.3-.64.3-.65,0,0,.27.48.25.92-.02.44-.32.64-.32.63,0,0-.25-.48-.23-.9ZM402.61,768.5c-.1.42-.45.54-.45.54,0,0-.17-.54-.08-.96.1-.41.43-.55.43-.55,0,0,.19.55.09.97ZM402.4,765.02c-.13.95-.85,1.26-.85,1.26,0,0-.43-1.12-.31-2.01.13-.88.77-1.31.78-1.31,0,0,.52,1.12.38,2.07ZM400.59,755.4c.01-.39.29-.59.29-.6,0,0,.27.45.26.85-.01.41-.3.59-.3.59,0,0-.26-.46-.24-.85ZM403.39,762.73c-.07.38-.39.47-.39.47,0,0-.21-.49-.14-.85.06-.36.38-.48.38-.48,0,0,.22.49.16.86ZM402.54,758.4c.02.68-.36,1.05-.36,1.05,0,0-.38-.68-.39-1.32-.02-.65.33-1.06.33-1.07,0,0,.41.67.43,1.34ZM396.07,739.89s.38.09.64.48c.26.39.28.91.27.91,0,0-.38-.11-.62-.49-.25-.38-.29-.9-.29-.9ZM401.67,752.56c.07.63-.27,1.02-.27,1.02,0,0-.41-.59-.48-1.18-.06-.6.24-1.03.24-1.03,0,0,.44.57.51,1.19ZM399.97,747.38s-.37-.35-.53-.83c-.16-.49-.05-.95-.05-.95,0,0,.38.33.54.83.16.5.04.95.04.95Z"/>
      <path class="cls-4" d="M333.7,672.73c.2-.42.61-.55.61-.55,0,0,.07.54-.13.95-.2.41-.6.56-.6.56,0,0-.09-.54.11-.97ZM333.15,676.2c.36-.95,1.22-1.28,1.22-1.27,0,0,.23,1.11-.11,2-.34.88-1.15,1.32-1.15,1.33,0,0-.32-1.11.04-2.06ZM331.53,678.12c.11-.4.47-.58.47-.58,0,0,.18.45.07.84-.11.39-.46.59-.46.59,0,0-.19-.44-.08-.85ZM331.95,691.44s-.43-.46-.45-1.09c-.02-.63.38-1.14.38-1.13,0,0,.4.49.42,1.09.02.6-.35,1.13-.35,1.13ZM332.29,683.07c-.13.64-.6,1.07-.6,1.07,0,0-.3-.66-.17-1.33.13-.67.64-1.05.64-1.05,0,0,.26.67.14,1.31ZM332.84,698.93s-.37-.26-.48-.75c-.11-.48.09-.97.09-.97,0,0,.36.28.46.75.11.47-.07.96-.07.96ZM333.25,685.24c-.11.39-.46.59-.46.59,0,0-.19-.44-.08-.85.11-.4.47-.58.47-.58,0,0,.17.45.07.84ZM333.72,680.61c.12-.43.49-.64.49-.64,0,0,.17.48.05.9-.12.42-.48.65-.48.65,0,0-.19-.47-.07-.91ZM334.56,704.2s-.49-.35-.63-.88c-.14-.53.13-1.04.13-1.04,0,0,.48.35.62.88.14.53-.11,1.03-.11,1.03ZM349.86,724.26c-.43-.04-.67-.57-.67-.57,0,0,.43-.43.86-.39.42.04.68.55.68.55,0,0-.44.46-.86.41ZM354.91,722.07s-.96,1.04-1.88,1.02c-.93-.02-1.47-1.1-1.47-1.1,0,0,.95-.98,1.87-.96.93.02,1.48,1.05,1.48,1.05ZM354.22,716.97c.6.01.95.68.95.68,0,0-.61.66-1.21.65-.59-.01-.95-.7-.95-.7,0,0,.61-.64,1.21-.63ZM351.37,718.16c1.11.1,1.78,1.37,1.78,1.37,0,0-1.16,1.23-2.27,1.13-1.11-.1-1.75-1.5-1.75-1.5,0,0,1.13-1.1,2.24-1ZM348.53,716.56c.41.09.66.63.66.63,0,0-.43.42-.85.33-.42-.09-.65-.66-.65-.66,0,0,.42-.39.84-.3ZM347.7,720.79c.57.13.91.86.91.87,0,0-.6.59-1.17.46-.57-.12-.9-.92-.9-.92,0,0,.59-.53,1.16-.4ZM345.48,717.06c.86.35,1.38,1.58,1.38,1.58,0,0-.92.84-1.78.48-.86-.35-1.34-1.76-1.34-1.76,0,0,.88-.65,1.74-.3ZM343.86,714.88c.34.23.44.79.44.79,0,0-.47.21-.81-.03-.34-.23-.43-.82-.43-.82,0,0,.45-.18.8.05ZM341.22,662.4c.44-.39,1.01-.23,1.01-.23,0,0-.15.73-.57,1.1-.42.37-.99.26-.99.26,0,0,.11-.75.55-1.14ZM341.79,718.42c.38.27.6.95.6.94,0,0-.41.28-.78.01-.38-.27-.59-.99-.59-.99,0,0,.4-.24.78.03ZM340.02,713.75c.5.51.78,1.54.78,1.54,0,0-.54.3-1.04-.21-.5-.51-.76-1.65-.76-1.65,0,0,.52-.19,1.02.33ZM337.25,712.39c.29.28.33.82.33.82,0,0-.46.11-.75-.17-.3-.28-.32-.84-.32-.84,0,0,.44-.09.74.19ZM336.59,708.58c.35.58.34,1.53.34,1.53,0,0-.6.06-.94-.51-.35-.58-.31-1.58-.32-1.59,0,0,.57-.01.91.57ZM336.53,675.08c-.24.5-.78.67-.78.67,0,0-.15-.7.1-1.23.26-.53.8-.65.8-.65,0,0,.12.7-.13,1.21ZM337.02,671.55c-.56.92-1.59,1.17-1.6,1.18,0,0-.19-1.4.42-2.41.61-1.01,1.69-1.08,1.69-1.08,0,0,.05,1.38-.5,2.31ZM337.29,668.11c-.35.48-.92.55-.92.55,0,0-.02-.76.34-1.27.36-.51.94-.52.94-.52,0,0-.02.76-.36,1.24ZM338.59,673.57c-.19.33-.58.37-.58.38,0,0-.08-.5.12-.84.2-.34.59-.36.59-.36,0,0,.06.5-.13.83ZM339.39,670.71c-.48.66-1.32.72-1.32.72,0,0-.09-1.13.42-1.84.51-.71,1.38-.66,1.37-.65,0,0,0,1.11-.47,1.77ZM340.51,667.1c-.8.88-2.03.85-2.04.86,0,.01.02-1.67.9-2.65.88-.97,2.15-.71,2.14-.7,0,0-.2,1.6-1,2.49ZM341.89,669.27c-.33.36-.86.28-.86.28,0,0,0-.71.35-1.09.35-.38.88-.26.88-.26,0,0-.04.7-.36,1.06ZM343.26,666.42c-.58.5-1.4.31-1.41.31,0,0,.1-1.12.72-1.67.62-.55,1.45-.24,1.45-.23,0,0-.19,1.08-.76,1.59ZM344.46,663.37c-.79.56-1.81.24-1.82.25,0,0,.24-1.38,1.1-1.99.86-.61,1.88-.12,1.88-.11,0,0-.38,1.3-1.16,1.86ZM345.77,665.7c-.28.19-.64.02-.64.02,0,0,.09-.5.38-.7.29-.2.65,0,.65,0,0,0-.11.49-.38.68ZM345.55,659.9s.17-.51.52-.7c.35-.19.74.03.74.03,0,0-.19.49-.53.67-.34.18-.74,0-.74,0ZM347.31,663.29c-.42.22-.93-.06-.93-.06,0,0,.18-.68.63-.92.44-.23.94.09.94.09,0,0-.22.66-.64.88ZM348.97,660.75c-.72.28-1.51-.21-1.52-.21,0,0,.39-1.06,1.17-1.36.78-.3,1.55.31,1.55.31,0,0-.47.98-1.2,1.26ZM350.72,657.82c-.3.1-.63-.16-.63-.16,0,0,.17-.46.48-.57.31-.11.64.18.64.18,0,0-.19.45-.49.55ZM351.89,660.73c-.32.16-.68-.06-.68-.06,0,0,.15-.49.48-.65.33-.16.69.08.69.08,0,0-.17.48-.49.63ZM353.99,658.12c-.49.17-1-.16-1-.16,0,0,.28-.67.79-.85.51-.18,1.02.2,1.01.2,0,0-.32.63-.8.81ZM356.43,657.99c-.3.1-.63-.16-.63-.16,0,0,.17-.46.48-.57.31-.11.64.18.63.18,0,0-.19.45-.49.55ZM358.93,656.04c-.45.14-.91-.24-.91-.24,0,0,.26-.64.73-.78.47-.14.92.28.92.28,0,0-.29.61-.74.74ZM363.89,653.98c-.37.08-.72-.22-.72-.22,0,0,.25-.45.63-.53.38-.08.72.24.72.24,0,0-.26.43-.63.51ZM367.26,653.62c-.31.1-.64-.15-.64-.15,0,0,.18-.44.51-.54.32-.1.64.17.64.17,0,0-.2.43-.51.52ZM370.44,653c-.47.12-.93-.24-.94-.23,0,0,.3-.61.79-.74.49-.13.94.28.94.28,0,0-.33.57-.79.69ZM372.67,653.58c-.31.1-.64-.15-.64-.15,0,0,.18-.44.51-.54.32-.11.64.17.64.17,0,0-.2.42-.51.52ZM372.96,651.04c-.28.13-.6-.09-.6-.09,0,0,.13-.45.42-.58.29-.13.61.11.61.11,0,0-.15.44-.43.57ZM375.7,651.88c-.68.29-1.44-.14-1.44-.14,0,0,.35-1.01,1.08-1.32.73-.31,1.46.24,1.46.24,0,0-.42.93-1.1,1.22ZM377.68,648.97c.35-.1.69.18.69.18,0,0-.23.42-.57.52-.34.1-.69-.15-.69-.15,0,0,.22-.44.57-.54ZM378.02,652.71c-.42.12-.86-.24-.86-.24,0,0,.26-.6.7-.73.44-.13.87.27.87.27,0,0-.28.57-.7.69ZM378.62,650.14s.59-1.1,1.51-1.22c.92-.13,1.67.78,1.67.78,0,0-.68.96-1.52,1.08-.84.11-1.65-.63-1.66-.64ZM380.2,653.51c-.29.05-.57-.26-.57-.26,0,0,.2-.4.51-.45.31-.05.57.28.57.28,0,0-.22.38-.51.43ZM382.44,652.31c-.66,0-1.23-.71-1.24-.71,0,0,.52-.82,1.22-.83.71-.01,1.24.8,1.24.8,0,0-.57.73-1.22.74ZM385.08,650.56c-.78-.1-1.41-.98-1.42-.98,0,0,.69-.86,1.55-.75.86.11,1.41,1.14,1.4,1.14,0,0-.76.7-1.53.6ZM388.44,650.24c-.36-.15-.59-.64-.59-.65,0,0,.39-.31.78-.15.39.16.58.71.58.71,0,0-.41.23-.77.09ZM391.05,659.55c.02.99.34,1.63.34,1.63,0,0-1.89-3.09.14-2.96,2.04.12,4.38.71,4.38.71-1.81.2-4.9-1.12-4.86.62ZM393.81,655.08,400.09,663.85"/>
      <path class="cls-4" d="M351.84,805.14c0-.19.13-.29.13-.29,0,0,.11.19.1.37,0,.18-.12.29-.12.29,0,0-.11-.19-.11-.38ZM352.17,806.52c-.02-.41.22-.65.22-.64,0,0,.24.39.26.76.02.38-.19.65-.19.66,0,0-.28-.37-.3-.78ZM351.91,807.46c-.02-.17.07-.28.07-.28,0,0,.13.15.15.31.02.16-.07.28-.07.29,0,0-.13-.14-.16-.31ZM354.06,812.4s-.22-.11-.32-.35c-.1-.23-.04-.48-.04-.48,0,0,.21.13.31.35.1.22.05.47.05.47ZM352.92,809.21c.05.26-.04.48-.04.48,0,0-.2-.21-.26-.48-.06-.27.06-.48.06-.48,0,0,.19.22.24.47ZM355.49,815.09s-.17-.05-.28-.21c-.11-.17-.12-.38-.12-.38,0,0,.16.06.27.22.11.16.12.37.12.37ZM353.57,809.9c.02.16-.07.28-.07.29,0,0-.13-.14-.16-.31-.02-.17.07-.28.07-.28,0,0,.13.15.15.31ZM353.03,808.09c-.03-.18.07-.31.07-.31,0,0,.13.16.15.33.02.17-.06.31-.06.31,0,0-.13-.15-.16-.33ZM356.87,816.83s-.22-.06-.35-.24c-.13-.18-.11-.41-.11-.41,0,0,.21.07.34.25.13.18.12.4.12.4ZM365.09,822.27c-.15.04-.31-.12-.31-.12,0,0,.08-.22.23-.26.15-.04.31.11.31.11,0,0-.08.23-.23.27ZM366.47,820.76s-.17.52-.49.64c-.32.12-.67-.21-.67-.21,0,0,.17-.5.49-.62.32-.12.66.19.66.19ZM365.47,818.94c.2-.08.42.12.42.12,0,0-.11.33-.31.41-.2.08-.43-.13-.43-.13,0,0,.11-.32.32-.4ZM364.68,819.78c.39-.11.81.27.81.27,0,0-.21.62-.6.73-.39.12-.82-.32-.82-.33,0,0,.22-.57.61-.68ZM363.48,819.56c.15-.02.32.15.32.15,0,0-.08.22-.24.24-.16.02-.32-.16-.32-.16,0,0,.09-.2.24-.23ZM363.84,821.26c.21-.03.44.2.44.2,0,0-.12.3-.33.33-.21.03-.45-.22-.45-.22,0,0,.12-.28.33-.31ZM362.52,820.17c.35.01.71.4.71.41,0,0-.19.44-.53.42-.35-.01-.72-.48-.72-.48,0,0,.2-.37.55-.35ZM361.64,819.57c.15.04.27.24.27.24,0,0-.13.14-.28.1-.15-.04-.27-.25-.27-.25,0,0,.13-.13.28-.09ZM352.83,800.24c.09-.2.31-.22.31-.22,0,0,.06.29-.03.49-.09.2-.3.23-.3.23,0,0-.08-.3.01-.5ZM361.47,821.18c.17.05.35.27.35.27,0,0-.1.16-.26.11-.17-.05-.35-.29-.35-.29,0,0,.1-.14.27-.09ZM360.17,819.67c.25.13.5.47.5.47,0,0-.14.19-.39.06-.25-.12-.51-.52-.51-.52,0,0,.15-.14.4-.02ZM359.02,819.54c.14.06.24.26.24.26,0,0-.14.1-.28.04-.14-.06-.23-.27-.23-.27,0,0,.14-.09.28-.03ZM358.22,818.2c.21.17.35.53.35.53,0,0-.19.11-.4-.06-.21-.17-.35-.55-.35-.55,0,0,.19-.08.4.09ZM353.15,805.63c0,.22-.16.36-.16.36,0,0-.16-.24-.15-.48,0-.23.17-.35.17-.35,0,0,.15.25.14.47ZM352.79,804.24c-.05.42-.36.66-.36.66,0,0-.28-.5-.22-.96.05-.46.41-.64.41-.63,0,0,.23.51.18.93ZM352.36,802.92c-.05.23-.23.33-.23.33,0,0-.12-.28-.08-.52.05-.24.24-.32.24-.32,0,0,.11.29.06.51ZM353.62,804.79c-.02.15-.14.22-.14.22,0,0-.1-.18-.09-.33.02-.15.15-.22.14-.22,0,0,.1.18.08.33ZM353.47,803.61c-.06.31-.34.45-.34.45,0,0-.2-.41-.13-.75.07-.34.37-.43.37-.43,0,0,.17.41.11.73ZM353.3,802.1c-.14.44-.56.6-.56.6,0,0-.25-.63-.09-1.12.15-.48.62-.56.62-.55,0,0,.17.63.03,1.07ZM354.1,802.72c-.06.18-.25.22-.25.22,0,0-.11-.27-.05-.46.06-.19.26-.22.26-.22,0,0,.09.27.04.45ZM354.13,801.47c-.12.27-.43.31-.43.31,0,0-.14-.44,0-.72.13-.29.46-.29.46-.29,0,0,.1.43-.02.7ZM354.08,800.16c-.18.32-.58.34-.58.34,0,0-.13-.55.08-.9.2-.34.62-.3.62-.3,0,0,.07.54-.12.86ZM354.88,800.85c-.07.11-.21.1-.21.1,0,0-.05-.2.02-.31.07-.11.22-.09.22-.09,0,0,.04.2-.03.31ZM353.93,798.71s-.02-.21.07-.33c.09-.12.26-.09.26-.09,0,0,.01.21-.08.33-.09.12-.25.1-.25.1ZM355.04,799.74c-.11.14-.32.11-.32.11,0,0-.04-.28.08-.43.12-.15.33-.09.33-.09,0,0,.02.28-.09.42ZM355.22,798.56c-.2.2-.55.13-.55.13,0,0-.03-.45.19-.67.22-.22.57-.1.57-.1,0,0-.01.43-.22.63ZM355.37,797.22c-.09.08-.24.03-.24.03,0,0-.01-.19.08-.28.09-.08.24-.02.24-.02,0,0,0,.19-.08.27ZM356.21,798.15c-.08.1-.24.07-.24.07,0,0-.02-.2.07-.31.09-.11.25-.07.25-.06,0,0,.01.2-.07.3ZM356.53,796.89c-.14.13-.36.08-.36.08,0,0,0-.29.14-.43.14-.14.38-.06.37-.06,0,0-.01.28-.15.41ZM357.34,796.51c-.09.08-.24.02-.24.03,0,0-.01-.19.08-.28.09-.08.24-.02.24-.02,0,0,0,.19-.08.27ZM357.89,795.43c-.13.11-.34.04-.34.04,0,0,0-.28.13-.39.14-.12.35-.02.35-.02,0,0,0,.27-.14.38ZM359.26,793.98c-.11.08-.28.02-.28.02,0,0,.02-.2.13-.28.12-.08.28,0,.28,0,0,0-.02.2-.14.28ZM360.35,793.39c-.09.08-.24.03-.24.03,0,0,0-.19.09-.27.09-.08.24-.02.24-.02,0,0,0,.19-.09.27ZM361.34,792.72c-.14.11-.35.04-.35.04,0,0,.01-.27.16-.38.15-.11.36-.02.36-.02,0,0-.03.26-.17.37ZM362.19,792.64c-.09.08-.24.03-.24.03,0,0,0-.19.09-.27.09-.08.24-.02.24-.02,0,0,0,.19-.09.27ZM361.9,791.65c-.07.09-.22.05-.22.05,0,0-.02-.19.05-.28.08-.09.22-.04.22-.04,0,0,.02.18-.06.27ZM362.96,791.59c-.19.2-.51.14-.51.14,0,0-.03-.43.17-.64.2-.21.53-.11.53-.11,0,0,0,.41-.19.61ZM363.19,790.22c.1-.09.26-.03.26-.03,0,0-.01.19-.12.27-.1.08-.26.04-.26.04,0,0,0-.19.11-.28ZM363.87,791.58c-.12.1-.33.03-.33.03,0,0,0-.26.13-.37.13-.11.34-.02.34-.02,0,0,0,.25-.13.36ZM363.69,790.54s.04-.49.33-.66c.29-.17.69.06.68.07,0,0-.08.45-.35.61-.27.16-.66-.01-.66-.01Z"/>
    </g>
  </g>
</svg>